<mxfile host="app.diagrams.net" modified="2021-05-24T13:52:20.285Z" agent="5.0 (Windows NT 10.0; Win64; x64) AppleWebKit/537.36 (KHTML, like Gecko) Chrome/90.0.4430.212 Safari/537.36 Edg/90.0.818.66" etag="LtY5IQj1mJjsdTH4pSfc" version="14.7.0" type="github">
  <diagram id="wMYKgpTsjfC2yOBbZFMr" name="Page-1">
    <mxGraphModel dx="942" dy="624" grid="1" gridSize="10" guides="1" tooltips="1" connect="1" arrows="1" fold="1" page="1" pageScale="1" pageWidth="827" pageHeight="1169" math="0" shadow="0">
      <root>
        <mxCell id="0" />
        <mxCell id="1" parent="0" />
        <mxCell id="BW0hRLp4qTFCky_lFoou-1" value="" style="shape=table;startSize=0;container=1;collapsible=0;childLayout=tableLayout;" vertex="1" parent="1">
          <mxGeometry x="120" y="460" width="187" height="167" as="geometry" />
        </mxCell>
        <mxCell id="BW0hRLp4qTFCky_lFoou-2" value="" style="shape=partialRectangle;collapsible=0;dropTarget=0;pointerEvents=0;fillColor=none;top=0;left=0;bottom=0;right=0;points=[[0,0.5],[1,0.5]];portConstraint=eastwest;" vertex="1" parent="BW0hRLp4qTFCky_lFoou-1">
          <mxGeometry width="187" height="42" as="geometry" />
        </mxCell>
        <mxCell id="BW0hRLp4qTFCky_lFoou-3" value="5" style="shape=partialRectangle;connectable=0;fillColor=#dae8fc;top=0;left=0;bottom=0;right=0;overflow=hidden;strokeColor=#6c8ebf;" vertex="1" parent="BW0hRLp4qTFCky_lFoou-2">
          <mxGeometry width="47" height="42" as="geometry" />
        </mxCell>
        <mxCell id="BW0hRLp4qTFCky_lFoou-4" value="0" style="shape=partialRectangle;connectable=0;fillColor=#dae8fc;top=0;left=0;bottom=0;right=0;overflow=hidden;strokeColor=#6c8ebf;" vertex="1" parent="BW0hRLp4qTFCky_lFoou-2">
          <mxGeometry x="47" width="47" height="42" as="geometry" />
        </mxCell>
        <mxCell id="BW0hRLp4qTFCky_lFoou-5" value="6" style="shape=partialRectangle;connectable=0;fillColor=none;top=0;left=0;bottom=0;right=0;overflow=hidden;" vertex="1" parent="BW0hRLp4qTFCky_lFoou-2">
          <mxGeometry x="94" width="46" height="42" as="geometry" />
        </mxCell>
        <mxCell id="BW0hRLp4qTFCky_lFoou-6" value="8" style="shape=partialRectangle;connectable=0;fillColor=none;top=0;left=0;bottom=0;right=0;overflow=hidden;" vertex="1" parent="BW0hRLp4qTFCky_lFoou-2">
          <mxGeometry x="140" width="47" height="42" as="geometry" />
        </mxCell>
        <mxCell id="BW0hRLp4qTFCky_lFoou-7" value="" style="shape=partialRectangle;collapsible=0;dropTarget=0;pointerEvents=0;fillColor=none;top=0;left=0;bottom=0;right=0;points=[[0,0.5],[1,0.5]];portConstraint=eastwest;" vertex="1" parent="BW0hRLp4qTFCky_lFoou-1">
          <mxGeometry y="42" width="187" height="42" as="geometry" />
        </mxCell>
        <mxCell id="BW0hRLp4qTFCky_lFoou-8" value="2" style="shape=partialRectangle;connectable=0;fillColor=#dae8fc;top=0;left=0;bottom=0;right=0;overflow=hidden;strokeColor=#6c8ebf;" vertex="1" parent="BW0hRLp4qTFCky_lFoou-7">
          <mxGeometry width="47" height="42" as="geometry" />
        </mxCell>
        <mxCell id="BW0hRLp4qTFCky_lFoou-9" value="4" style="shape=partialRectangle;connectable=0;fillColor=#dae8fc;top=0;left=0;bottom=0;right=0;overflow=hidden;strokeColor=#6c8ebf;" vertex="1" parent="BW0hRLp4qTFCky_lFoou-7">
          <mxGeometry x="47" width="47" height="42" as="geometry" />
        </mxCell>
        <mxCell id="BW0hRLp4qTFCky_lFoou-10" value="1" style="shape=partialRectangle;connectable=0;fillColor=none;top=0;left=0;bottom=0;right=0;overflow=hidden;" vertex="1" parent="BW0hRLp4qTFCky_lFoou-7">
          <mxGeometry x="94" width="46" height="42" as="geometry" />
        </mxCell>
        <mxCell id="BW0hRLp4qTFCky_lFoou-11" value="7" style="shape=partialRectangle;connectable=0;fillColor=none;top=0;left=0;bottom=0;right=0;overflow=hidden;" vertex="1" parent="BW0hRLp4qTFCky_lFoou-7">
          <mxGeometry x="140" width="47" height="42" as="geometry" />
        </mxCell>
        <mxCell id="BW0hRLp4qTFCky_lFoou-12" value="" style="shape=partialRectangle;collapsible=0;dropTarget=0;pointerEvents=0;fillColor=none;top=0;left=0;bottom=0;right=0;points=[[0,0.5],[1,0.5]];portConstraint=eastwest;" vertex="1" parent="BW0hRLp4qTFCky_lFoou-1">
          <mxGeometry y="84" width="187" height="41" as="geometry" />
        </mxCell>
        <mxCell id="BW0hRLp4qTFCky_lFoou-13" value="4" style="shape=partialRectangle;connectable=0;fillColor=none;top=0;left=0;bottom=0;right=0;overflow=hidden;" vertex="1" parent="BW0hRLp4qTFCky_lFoou-12">
          <mxGeometry width="47" height="41" as="geometry" />
        </mxCell>
        <mxCell id="BW0hRLp4qTFCky_lFoou-14" value="2" style="shape=partialRectangle;connectable=0;fillColor=none;top=0;left=0;bottom=0;right=0;overflow=hidden;" vertex="1" parent="BW0hRLp4qTFCky_lFoou-12">
          <mxGeometry x="47" width="47" height="41" as="geometry" />
        </mxCell>
        <mxCell id="BW0hRLp4qTFCky_lFoou-15" value="1" style="shape=partialRectangle;connectable=0;fillColor=none;top=0;left=0;bottom=0;right=0;overflow=hidden;" vertex="1" parent="BW0hRLp4qTFCky_lFoou-12">
          <mxGeometry x="94" width="46" height="41" as="geometry" />
        </mxCell>
        <mxCell id="BW0hRLp4qTFCky_lFoou-16" value="4" style="shape=partialRectangle;connectable=0;fillColor=none;top=0;left=0;bottom=0;right=0;overflow=hidden;" vertex="1" parent="BW0hRLp4qTFCky_lFoou-12">
          <mxGeometry x="140" width="47" height="41" as="geometry" />
        </mxCell>
        <mxCell id="BW0hRLp4qTFCky_lFoou-17" value="" style="shape=partialRectangle;collapsible=0;dropTarget=0;pointerEvents=0;fillColor=none;top=0;left=0;bottom=0;right=0;points=[[0,0.5],[1,0.5]];portConstraint=eastwest;" vertex="1" parent="BW0hRLp4qTFCky_lFoou-1">
          <mxGeometry y="125" width="187" height="42" as="geometry" />
        </mxCell>
        <mxCell id="BW0hRLp4qTFCky_lFoou-18" value="3" style="shape=partialRectangle;connectable=0;fillColor=none;top=0;left=0;bottom=0;right=0;overflow=hidden;" vertex="1" parent="BW0hRLp4qTFCky_lFoou-17">
          <mxGeometry width="47" height="42" as="geometry" />
        </mxCell>
        <mxCell id="BW0hRLp4qTFCky_lFoou-19" value="6" style="shape=partialRectangle;connectable=0;fillColor=none;top=0;left=0;bottom=0;right=0;overflow=hidden;" vertex="1" parent="BW0hRLp4qTFCky_lFoou-17">
          <mxGeometry x="47" width="47" height="42" as="geometry" />
        </mxCell>
        <mxCell id="BW0hRLp4qTFCky_lFoou-20" value="4" style="shape=partialRectangle;connectable=0;fillColor=none;top=0;left=0;bottom=0;right=0;overflow=hidden;" vertex="1" parent="BW0hRLp4qTFCky_lFoou-17">
          <mxGeometry x="94" width="46" height="42" as="geometry" />
        </mxCell>
        <mxCell id="BW0hRLp4qTFCky_lFoou-21" value="2" style="shape=partialRectangle;connectable=0;fillColor=none;top=0;left=0;bottom=0;right=0;overflow=hidden;" vertex="1" parent="BW0hRLp4qTFCky_lFoou-17">
          <mxGeometry x="140" width="47" height="42" as="geometry" />
        </mxCell>
        <mxCell id="BW0hRLp4qTFCky_lFoou-22" value="" style="endArrow=classic;exitX=1.016;exitY=0.024;exitDx=0;exitDy=0;exitPerimeter=0;" edge="1" parent="1" source="BW0hRLp4qTFCky_lFoou-12">
          <mxGeometry width="50" height="50" relative="1" as="geometry">
            <mxPoint x="350" y="565" as="sourcePoint" />
            <mxPoint x="450" y="545" as="targetPoint" />
          </mxGeometry>
        </mxCell>
        <mxCell id="BW0hRLp4qTFCky_lFoou-23" value="" style="shape=table;startSize=0;container=1;collapsible=0;childLayout=tableLayout;" vertex="1" parent="1">
          <mxGeometry x="460" y="500" width="90" height="87" as="geometry" />
        </mxCell>
        <mxCell id="BW0hRLp4qTFCky_lFoou-24" value="" style="shape=partialRectangle;collapsible=0;dropTarget=0;pointerEvents=0;fillColor=none;top=0;left=0;bottom=0;right=0;points=[[0,0.5],[1,0.5]];portConstraint=eastwest;" vertex="1" parent="BW0hRLp4qTFCky_lFoou-23">
          <mxGeometry width="90" height="44" as="geometry" />
        </mxCell>
        <mxCell id="BW0hRLp4qTFCky_lFoou-25" value="5" style="shape=partialRectangle;connectable=0;fillColor=#dae8fc;top=0;left=0;bottom=0;right=0;overflow=hidden;strokeColor=#6c8ebf;" vertex="1" parent="BW0hRLp4qTFCky_lFoou-24">
          <mxGeometry width="45" height="44" as="geometry" />
        </mxCell>
        <mxCell id="BW0hRLp4qTFCky_lFoou-26" value="8" style="shape=partialRectangle;connectable=0;fillColor=none;top=0;left=0;bottom=0;right=0;overflow=hidden;" vertex="1" parent="BW0hRLp4qTFCky_lFoou-24">
          <mxGeometry x="45" width="45" height="44" as="geometry" />
        </mxCell>
        <mxCell id="BW0hRLp4qTFCky_lFoou-27" value="" style="shape=partialRectangle;collapsible=0;dropTarget=0;pointerEvents=0;fillColor=none;top=0;left=0;bottom=0;right=0;points=[[0,0.5],[1,0.5]];portConstraint=eastwest;" vertex="1" parent="BW0hRLp4qTFCky_lFoou-23">
          <mxGeometry y="44" width="90" height="43" as="geometry" />
        </mxCell>
        <mxCell id="BW0hRLp4qTFCky_lFoou-28" value="6" style="shape=partialRectangle;connectable=0;fillColor=none;top=0;left=0;bottom=0;right=0;overflow=hidden;" vertex="1" parent="BW0hRLp4qTFCky_lFoou-27">
          <mxGeometry width="45" height="43" as="geometry" />
        </mxCell>
        <mxCell id="BW0hRLp4qTFCky_lFoou-29" value="4" style="shape=partialRectangle;connectable=0;fillColor=none;top=0;left=0;bottom=0;right=0;overflow=hidden;" vertex="1" parent="BW0hRLp4qTFCky_lFoou-27">
          <mxGeometry x="45" width="45" height="43" as="geometry" />
        </mxCell>
        <mxCell id="BW0hRLp4qTFCky_lFoou-30" value="步幅为2&#xa;池化为2" style="text;strokeColor=none;fillColor=none;align=center;verticalAlign=middle;rounded=0;" vertex="1" parent="1">
          <mxGeometry x="342" y="515" width="64" height="20" as="geometry" />
        </mxCell>
      </root>
    </mxGraphModel>
  </diagram>
</mxfile>
